<svg xmlns="http://www.w3.org/2000/svg" xmlns:xlink="http://www.w3.org/1999/xlink" viewBox="0,0,256,256" width="64px" height="64px"><defs><linearGradient x1="32" y1="7.766" x2="32" y2="56.935" gradientUnits="userSpaceOnUse" id="color-1"><stop offset="0" stop-color="#1a6dff"></stop><stop offset="1" stop-color="#c822ff"></stop></linearGradient><linearGradient x1="24.994" y1="19.17" x2="24.994" y2="43.852" gradientUnits="userSpaceOnUse" id="color-2"><stop offset="0" stop-color="#6dc7ff"></stop><stop offset="1" stop-color="#e6abff"></stop></linearGradient><linearGradient x1="39.035" y1="19.17" x2="39.035" y2="43.852" gradientUnits="userSpaceOnUse" id="color-3"><stop offset="0" stop-color="#6dc7ff"></stop><stop offset="1" stop-color="#e6abff"></stop></linearGradient></defs><g transform=""><g fill="none" fill-rule="nonzero" stroke="none" stroke-width="1" stroke-linecap="butt" stroke-linejoin="miter" stroke-miterlimit="10" stroke-dasharray="" stroke-dashoffset="0" font-family="none" font-weight="none" font-size="none" text-anchor="none" style="mix-blend-mode: normal"><g transform="scale(4,4)"><path d="M51,8h-38c-2.757,0 -5,2.243 -5,5v38c0,2.757 2.243,5 5,5h38c2.757,0 5,-2.243 5,-5v-38c0,-2.757 -2.243,-5 -5,-5zM54,51c0,1.654 -1.346,3 -3,3h-38c-1.654,0 -3,-1.346 -3,-3v-38c0,-1.654 1.346,-3 3,-3h38c1.654,0 3,1.346 3,3z" fill="url(#color-1)"></path><path d="M31.135,31.827c-0.037,-0.436 -0.212,-0.863 -0.51,-1.186l-8.182,-10.855c-0.665,-0.882 -1.919,-1.058 -2.801,-0.393c-0.882,0.665 -1.058,1.919 -0.393,2.801l7.392,9.806l-7.392,9.807c-0.665,0.882 -0.489,2.136 0.393,2.801c0.882,0.665 2.136,0.489 2.801,-0.393c0,0 8.182,-10.854 8.182,-10.855c0.296,-0.393 0.501,-0.793 0.516,-1.302c0.003,-0.077 0.001,-0.154 -0.006,-0.231z" fill="url(#color-2)"></path><path d="M44.81,41.885l-7.451,-9.885l7.392,-9.807c0.665,-0.882 0.489,-2.136 -0.393,-2.801c-0.882,-0.665 -2.136,-0.489 -2.801,0.393c0,0 -8.182,10.854 -8.182,10.855c-0.299,0.396 -0.504,0.8 -0.516,1.313c-0.012,0.51 0.169,1.028 0.516,1.406l8.241,10.933c0.665,0.882 1.919,1.058 2.801,0.393c0.882,-0.664 1.058,-1.918 0.393,-2.8z" fill="url(#color-3)"></path></g></g><g fill="#1abaff" fill-rule="nonzero" stroke="none" stroke-width="1" stroke-linecap="butt" stroke-linejoin="miter" stroke-miterlimit="10" stroke-dasharray="" stroke-dashoffset="0" font-family="none" font-weight="none" font-size="none" text-anchor="none" style="mix-blend-mode: normal"><g><path d="M64.7,193.82v2.44h-4.08v11.56h-2.74v-11.56h-4.1v-2.44zM74.86,207.92l-5.26,-7.4l-1.1,-2.2h-0.1l0.32,2.2v7.3h-2.6v-14.1h2l5.3,7.46l1.06,2.14h0.1l-0.32,-2.14v-7.36h2.6v14.1zM85.3,204.06v0c0,-0.42667 -0.15667,-0.77333 -0.47,-1.04c-0.31333,-0.26667 -0.70667,-0.51 -1.18,-0.73c-0.47333,-0.22 -0.98667,-0.44667 -1.54,-0.68c-0.55333,-0.23333 -1.06667,-0.52 -1.54,-0.86c-0.47333,-0.34 -0.86667,-0.76333 -1.18,-1.27c-0.31333,-0.50667 -0.47,-1.15333 -0.47,-1.94v0c0,-0.68 0.11333,-1.27 0.34,-1.77c0.22667,-0.5 0.55,-0.91667 0.97,-1.25c0.42,-0.33333 0.91667,-0.58 1.49,-0.74c0.57333,-0.16 1.21333,-0.24 1.92,-0.24v0c0.81333,0 1.58,0.07 2.3,0.21c0.72,0.14 1.31333,0.34333 1.78,0.61v0l-0.86,2.3c-0.29333,-0.18667 -0.73333,-0.35667 -1.32,-0.51c-0.58667,-0.15333 -1.22,-0.23 -1.9,-0.23v0c-0.64,0 -1.13,0.12667 -1.47,0.38c-0.34,0.25333 -0.51,0.59333 -0.51,1.02v0c0,0.4 0.15667,0.73333 0.47,1c0.31333,0.26667 0.70667,0.51333 1.18,0.74c0.47333,0.22667 0.98667,0.46 1.54,0.7c0.55333,0.24 1.06667,0.53 1.54,0.87c0.47333,0.34 0.86667,0.76 1.18,1.26c0.31333,0.5 0.47,1.12333 0.47,1.87v0c0,0.74667 -0.12333,1.39 -0.37,1.93c-0.24667,0.54 -0.59333,0.99 -1.04,1.35c-0.44667,0.36 -0.98667,0.62667 -1.62,0.8c-0.63333,0.17333 -1.33,0.26 -2.09,0.26v0c-1,0 -1.88,-0.09333 -2.64,-0.28c-0.76,-0.18667 -1.32,-0.37333 -1.68,-0.56v0l0.88,-2.34c0.14667,0.08 0.33667,0.16667 0.57,0.26c0.23333,0.09333 0.49667,0.18 0.79,0.26c0.29333,0.08 0.60333,0.14667 0.93,0.2c0.32667,0.05333 0.66333,0.08 1.01,0.08v0c0.81333,0 1.43667,-0.13667 1.87,-0.41c0.43333,-0.27333 0.65,-0.69 0.65,-1.25zM104.14,193.82v2.44h-4.08v11.56h-2.74v-11.56h-4.1v-2.44zM110.08,205.26l0.86,1.7c-0.4,0.32 -0.94333,0.59 -1.63,0.81c-0.68667,0.22 -1.41667,0.33 -2.19,0.33v0c-1.61333,0 -2.79333,-0.47 -3.54,-1.41c-0.74667,-0.94 -1.12,-2.23 -1.12,-3.87v0c0,-1.76 0.42,-3.08 1.26,-3.96c0.84,-0.88 2.02,-1.32 3.54,-1.32v0c0.50667,0 1,0.06667 1.48,0.2c0.48,0.13333 0.90667,0.35333 1.28,0.66c0.37333,0.30667 0.67333,0.72 0.9,1.24c0.22667,0.52 0.34,1.16667 0.34,1.94v0c0,0.28 -0.01667,0.58 -0.05,0.9c-0.03333,0.32 -0.08333,0.65333 -0.15,1v0h-6c0.04,0.84 0.25667,1.47333 0.65,1.9c0.39333,0.42667 1.03,0.64 1.91,0.64v0c0.54667,0 1.03667,-0.08333 1.47,-0.25c0.43333,-0.16667 0.76333,-0.33667 0.99,-0.51zM107.22,199.62v0c-0.68,0 -1.18333,0.20333 -1.51,0.61c-0.32667,0.40667 -0.52333,0.95 -0.59,1.63v0h3.72c0.05333,-0.72 -0.05667,-1.27333 -0.33,-1.66c-0.27333,-0.38667 -0.70333,-0.58 -1.29,-0.58zM119.48,205.22l0.6,1.98c-0.4,0.29333 -0.88333,0.51667 -1.45,0.67c-0.56667,0.15333 -1.15,0.23 -1.75,0.23v0c-0.8,0 -1.47667,-0.12667 -2.03,-0.38c-0.55333,-0.25333 -1.00333,-0.61 -1.35,-1.07c-0.34667,-0.46 -0.59667,-1.01667 -0.75,-1.67c-0.15333,-0.65333 -0.23,-1.37333 -0.23,-2.16v0c0,-1.69333 0.38,-2.99667 1.14,-3.91c0.76,-0.91333 1.86667,-1.37 3.32,-1.37v0c0.73333,0 1.32333,0.06 1.77,0.18c0.44667,0.12 0.85,0.27333 1.21,0.46v0l-0.62,2.12c-0.30667,-0.14667 -0.61,-0.26 -0.91,-0.34c-0.3,-0.08 -0.64333,-0.12 -1.03,-0.12v0c-0.72,0 -1.26667,0.23667 -1.64,0.71c-0.37333,0.47333 -0.56,1.23 -0.56,2.27v0c0,0.42667 0.04667,0.82 0.14,1.18c0.09333,0.36 0.23333,0.67333 0.42,0.94c0.18667,0.26667 0.43,0.47667 0.73,0.63c0.3,0.15333 0.65,0.23 1.05,0.23v0c0.44,0 0.81333,-0.05667 1.12,-0.17c0.30667,-0.11333 0.58,-0.25 0.82,-0.41zM130.38,207.82h-2.6v-5.68c0,-0.81333 -0.11333,-1.4 -0.34,-1.76c-0.22667,-0.36 -0.64,-0.54 -1.24,-0.54v0c-0.44,0 -0.84333,0.15 -1.21,0.45c-0.36667,0.3 -0.61,0.68333 -0.73,1.15v0v6.38h-2.6v-14h2.6v5.12h0.08c0.32,-0.42667 0.71333,-0.76667 1.18,-1.02c0.46667,-0.25333 1.06,-0.38 1.78,-0.38v0c0.50667,0 0.95333,0.06667 1.34,0.2c0.38667,0.13333 0.71,0.35333 0.97,0.66c0.26,0.30667 0.45333,0.72333 0.58,1.25c0.12667,0.52667 0.19,1.17667 0.19,1.95v0zM141.28,207.82h-2.6v-5.68c0,-0.81333 -0.11667,-1.4 -0.35,-1.76c-0.23333,-0.36 -0.63,-0.54 -1.19,-0.54v0c-0.49333,0 -0.91,0.14333 -1.25,0.43c-0.34,0.28667 -0.58333,0.64333 -0.73,1.07v0v6.48h-2.6v-10h2.06l0.3,1.32h0.08c0.30667,-0.42667 0.71333,-0.8 1.22,-1.12c0.50667,-0.32 1.16,-0.48 1.96,-0.48v0c0.49333,0 0.93333,0.06667 1.32,0.2c0.38667,0.13333 0.71333,0.35333 0.98,0.66c0.26667,0.30667 0.46667,0.72333 0.6,1.25c0.13333,0.52667 0.2,1.17667 0.2,1.95v0zM142.98,202.82v0c0,-1.69333 0.41333,-2.99667 1.24,-3.91c0.82667,-0.91333 1.98667,-1.37 3.48,-1.37v0c0.8,0 1.49333,0.12667 2.08,0.38c0.58667,0.25333 1.07333,0.61 1.46,1.07c0.38667,0.46 0.67667,1.01667 0.87,1.67c0.19333,0.65333 0.29,1.37333 0.29,2.16v0c0,1.69333 -0.41,2.99667 -1.23,3.91c-0.82,0.91333 -1.97667,1.37 -3.47,1.37v0c-0.8,0 -1.49333,-0.12667 -2.08,-0.38c-0.58667,-0.25333 -1.07667,-0.61 -1.47,-1.07c-0.39333,-0.46 -0.68667,-1.01667 -0.88,-1.67c-0.19333,-0.65333 -0.29,-1.37333 -0.29,-2.16zM145.66,202.82v0c0,0.44 0.04,0.84667 0.12,1.22c0.08,0.37333 0.2,0.7 0.36,0.98c0.16,0.28 0.37,0.49667 0.63,0.65c0.26,0.15333 0.57,0.23 0.93,0.23v0c0.68,0 1.18667,-0.24667 1.52,-0.74c0.33333,-0.49333 0.5,-1.27333 0.5,-2.34v0c0,-0.92 -0.15333,-1.66333 -0.46,-2.23c-0.30667,-0.56667 -0.82667,-0.85 -1.56,-0.85v0c-0.64,0 -1.14,0.24 -1.5,0.72c-0.36,0.48 -0.54,1.26667 -0.54,2.36zM156.88,193.82v10.64c0,0.46667 0.06,0.80667 0.18,1.02c0.12,0.21333 0.31333,0.32 0.58,0.32v0c0.16,0 0.31667,-0.01333 0.47,-0.04c0.15333,-0.02667 0.34333,-0.08667 0.57,-0.18v0l0.28,2.04c-0.21333,0.10667 -0.54,0.21333 -0.98,0.32c-0.44,0.10667 -0.89333,0.16 -1.36,0.16v0c-0.76,0 -1.34,-0.17667 -1.74,-0.53c-0.4,-0.35333 -0.6,-0.93667 -0.6,-1.75v0v-12zM159.6,202.82v0c0,-1.69333 0.41333,-2.99667 1.24,-3.91c0.82667,-0.91333 1.98667,-1.37 3.48,-1.37v0c0.8,0 1.49333,0.12667 2.08,0.38c0.58667,0.25333 1.07333,0.61 1.46,1.07c0.38667,0.46 0.67667,1.01667 0.87,1.67c0.19333,0.65333 0.29,1.37333 0.29,2.16v0c0,1.69333 -0.41,2.99667 -1.23,3.91c-0.82,0.91333 -1.97667,1.37 -3.47,1.37v0c-0.8,0 -1.49333,-0.12667 -2.08,-0.38c-0.58667,-0.25333 -1.07667,-0.61 -1.47,-1.07c-0.39333,-0.46 -0.68667,-1.01667 -0.88,-1.67c-0.19333,-0.65333 -0.29,-1.37333 -0.29,-2.16zM162.28,202.82v0c0,0.44 0.04,0.84667 0.12,1.22c0.08,0.37333 0.2,0.7 0.36,0.98c0.16,0.28 0.37,0.49667 0.63,0.65c0.26,0.15333 0.57,0.23 0.93,0.23v0c0.68,0 1.18667,-0.24667 1.52,-0.74c0.33333,-0.49333 0.5,-1.27333 0.5,-2.34v0c0,-0.92 -0.15333,-1.66333 -0.46,-2.23c-0.30667,-0.56667 -0.82667,-0.85 -1.56,-0.85v0c-0.64,0 -1.14,0.24 -1.5,0.72c-0.36,0.48 -0.54,1.26667 -0.54,2.36zM179.28,198.18v9.64c0,1.45333 -0.39333,2.52333 -1.18,3.21c-0.78667,0.68667 -1.88667,1.03 -3.3,1.03v0c-0.96,0 -1.71667,-0.06667 -2.27,-0.2c-0.55333,-0.13333 -0.97,-0.27333 -1.25,-0.42v0l0.54,-2.06c0.30667,0.12 0.66333,0.24 1.07,0.36c0.40667,0.12 0.91,0.18 1.51,0.18v0c0.90667,0 1.52333,-0.19667 1.85,-0.59c0.32667,-0.39333 0.49,-0.94333 0.49,-1.65v0v-0.64h-0.08c-0.46667,0.62667 -1.29333,0.94 -2.48,0.94v0c-1.29333,0 -2.25667,-0.4 -2.89,-1.2c-0.63333,-0.8 -0.95,-2.05333 -0.95,-3.76v0c0,-1.78667 0.42667,-3.14 1.28,-4.06c0.85333,-0.92 2.09333,-1.38 3.72,-1.38v0c0.85333,0 1.61667,0.06 2.29,0.18c0.67333,0.12 1.22333,0.26 1.65,0.42zM174.88,205.9v0c0.50667,0 0.89667,-0.11333 1.17,-0.34c0.27333,-0.22667 0.48333,-0.56667 0.63,-1.02v0v-4.5c-0.41333,-0.17333 -0.92667,-0.26 -1.54,-0.26v0c-0.66667,0 -1.18667,0.25 -1.56,0.75c-0.37333,0.5 -0.56,1.29667 -0.56,2.39v0c0,0.97333 0.16,1.71333 0.48,2.22c0.32,0.50667 0.78,0.76 1.38,0.76zM181.76,207.82v-10h2.6v10zM181.38,195v0c0,-0.38667 0.14333,-0.71667 0.43,-0.99c0.28667,-0.27333 0.68333,-0.41 1.19,-0.41v0c0.50667,0 0.91667,0.13667 1.23,0.41c0.31333,0.27333 0.47,0.60333 0.47,0.99v0c0,0.38667 -0.15667,0.71 -0.47,0.97c-0.31333,0.26 -0.72333,0.39 -1.23,0.39v0c-0.50667,0 -0.90333,-0.13 -1.19,-0.39c-0.28667,-0.26 -0.43,-0.58333 -0.43,-0.97zM194.06,205.26l0.86,1.7c-0.4,0.32 -0.94333,0.59 -1.63,0.81c-0.68667,0.22 -1.41667,0.33 -2.19,0.33v0c-1.61333,0 -2.79333,-0.47 -3.54,-1.41c-0.74667,-0.94 -1.12,-2.23 -1.12,-3.87v0c0,-1.76 0.42,-3.08 1.26,-3.96c0.84,-0.88 2.02,-1.32 3.54,-1.32v0c0.50667,0 1,0.06667 1.48,0.2c0.48,0.13333 0.90667,0.35333 1.28,0.66c0.37333,0.30667 0.67333,0.72 0.9,1.24c0.22667,0.52 0.34,1.16667 0.34,1.94v0c0,0.28 -0.01667,0.58 -0.05,0.9c-0.03333,0.32 -0.08333,0.65333 -0.15,1v0h-6c0.04,0.84 0.25667,1.47333 0.65,1.9c0.39333,0.42667 1.03,0.64 1.91,0.64v0c0.54667,0 1.03667,-0.08333 1.47,-0.25c0.43333,-0.16667 0.76333,-0.33667 0.99,-0.51zM191.2,199.62v0c-0.68,0 -1.18333,0.20333 -1.51,0.61c-0.32667,0.40667 -0.52333,0.95 -0.59,1.63v0h3.72c0.05333,-0.72 -0.05667,-1.27333 -0.33,-1.66c-0.27333,-0.38667 -0.70333,-0.58 -1.29,-0.58zM201.22,205.06v0c0,-0.26667 -0.11333,-0.48 -0.34,-0.64c-0.22667,-0.16 -0.50667,-0.30667 -0.84,-0.44c-0.33333,-0.13333 -0.7,-0.27 -1.1,-0.41c-0.4,-0.14 -0.76667,-0.33333 -1.1,-0.58c-0.33333,-0.24667 -0.61333,-0.56 -0.84,-0.94c-0.22667,-0.38 -0.34,-0.87 -0.34,-1.47v0c0,-0.98667 0.29333,-1.74 0.88,-2.26c0.58667,-0.52 1.43333,-0.78 2.54,-0.78v0c0.76,0 1.44667,0.08 2.06,0.24c0.61333,0.16 1.09333,0.34 1.44,0.54v0l-0.58,1.88c-0.30667,-0.12 -0.69333,-0.24667 -1.16,-0.38c-0.46667,-0.13333 -0.94,-0.2 -1.42,-0.2v0c-0.77333,0 -1.16,0.3 -1.16,0.9v0c0,0.24 0.11333,0.43333 0.34,0.58c0.22667,0.14667 0.50667,0.28333 0.84,0.41c0.33333,0.12667 0.7,0.26333 1.1,0.41c0.4,0.14667 0.76667,0.33667 1.1,0.57c0.33333,0.23333 0.61333,0.53667 0.84,0.91c0.22667,0.37333 0.34,0.85333 0.34,1.44v0c0,1.01333 -0.32333,1.81 -0.97,2.39c-0.64667,0.58 -1.61667,0.87 -2.91,0.87v0c-0.70667,0 -1.37,-0.09 -1.99,-0.27c-0.62,-0.18 -1.12333,-0.39 -1.51,-0.63v0l0.72,-1.94c0.30667,0.17333 0.71333,0.34333 1.22,0.51c0.50667,0.16667 1.02667,0.25 1.56,0.25v0c0.38667,0 0.69667,-0.07333 0.93,-0.22c0.23333,-0.14667 0.35,-0.39333 0.35,-0.74z"></path></g></g></g></svg>