<?xml version="1.0" encoding="UTF-8"?>
<svg xmlns="http://www.w3.org/2000/svg" xmlns:xlink="http://www.w3.org/1999/xlink" width="2400" height="2400" viewBox="0 0 2400 2400">

<path fill-rule="nonzero" fill="rgb(0%, 0%, 0%)" fill-opacity="1" d="M 1031.929688 1856.933594 C 1031.929688 1851.746094 1032.769531 1847.207031 1034.421875 1843.265625 C 1036.078125 1839.335938 1038.441406 1836.28125 1041.53125 1834.085938 C 1044.601562 1831.886719 1048.25 1830.789062 1052.488281 1830.789062 C 1055.828125 1830.789062 1058.691406 1831.402344 1061.050781 1832.617188 C 1063.070312 1833.644531 1064.78125 1835.054688 1066.210938 1836.84375 L 1066.691406 1831.742188 L 1077.390625 1831.742188 L 1077.390625 1881.496094 C 1077.390625 1886.101562 1076.390625 1890.027344 1074.398438 1893.261719 C 1072.410156 1896.492188 1069.660156 1898.949219 1066.140625 1900.628906 C 1062.621094 1902.292969 1058.550781 1903.132812 1053.910156 1903.132812 C 1051.949219 1903.132812 1049.769531 1902.859375 1047.398438 1902.308594 C 1045 1901.757812 1042.691406 1900.855469 1040.460938 1899.625 C 1038.21875 1898.398438 1036.339844 1896.78125 1034.820312 1894.796875 L 1040.320312 1887.699219 C 1042.140625 1889.816406 1044.160156 1891.386719 1046.359375 1892.402344 C 1048.539062 1893.4375 1050.851562 1893.953125 1053.289062 1893.953125 C 1057.109375 1893.953125 1060.109375 1892.886719 1062.308594 1890.769531 C 1064.511719 1888.65625 1065.589844 1885.632812 1065.589844 1881.691406 L 1065.589844 1878.246094 C 1064.789062 1879.152344 1063.921875 1879.96875 1062.96875 1880.6875 C 1060.179688 1882.835938 1056.660156 1883.921875 1052.390625 1883.921875 C 1048.21875 1883.921875 1044.621094 1882.789062 1041.550781 1880.527344 C 1038.488281 1878.265625 1036.121094 1875.195312 1034.449219 1871.269531 C 1032.769531 1867.355469 1031.929688 1862.914062 1031.929688 1857.921875 Z M 860.195312 1865.160156 C 860.195312 1863.300781 859.808594 1861.71875 859.03125 1860.410156 C 858.257812 1859.101562 856.816406 1857.886719 854.703125 1856.757812 C 852.585938 1855.640625 849.546875 1854.460938 845.570312 1853.234375 C 842.324219 1852.265625 839.316406 1851.132812 836.554688 1849.871094 C 833.789062 1848.613281 831.382812 1847.160156 829.332031 1845.492188 C 827.28125 1843.847656 825.679688 1841.90625 824.53125 1839.726562 C 823.371094 1837.527344 822.804688 1834.992188 822.804688 1832.113281 C 822.804688 1828.367188 823.839844 1825.070312 825.921875 1822.210938 C 828.007812 1819.347656 830.898438 1817.117188 834.585938 1815.503906 C 838.285156 1813.902344 842.550781 1813.097656 847.414062 1813.097656 C 852.585938 1813.097656 857.042969 1814.03125 860.761719 1815.90625 C 864.492188 1817.78125 867.355469 1820.320312 869.355469 1823.503906 C 871.359375 1826.703125 872.363281 1830.238281 872.363281 1834.152344 L 860.144531 1834.152344 C 860.144531 1831.984375 859.679688 1830.03125 858.757812 1828.316406 C 857.820312 1826.589844 856.414062 1825.246094 854.523438 1824.292969 C 852.617188 1823.324219 850.210938 1822.839844 847.269531 1822.839844 C 844.519531 1822.839844 842.242188 1823.257812 840.398438 1824.066406 C 838.574219 1824.890625 837.21875 1826.007812 836.34375 1827.378906 C 835.457031 1828.769531 835.003906 1830.351562 835.003906 1832.113281 C 835.003906 1833.796875 835.554688 1835.28125 836.621094 1836.574219 C 837.6875 1837.867188 839.316406 1839.046875 841.5 1840.097656 C 843.679688 1841.164062 846.394531 1842.183594 849.644531 1843.152344 C 854.75 1844.636719 859 1846.367188 862.375 1848.355469 C 865.753906 1850.34375 868.273438 1852.699219 869.921875 1855.414062 C 871.585938 1858.128906 872.410156 1861.347656 872.410156 1865.078125 C 872.410156 1868.957031 871.394531 1872.300781 869.371094 1875.128906 C 867.355469 1877.957031 864.507812 1880.121094 860.808594 1881.640625 C 857.125 1883.160156 852.777344 1883.921875 847.800781 1883.921875 C 844.472656 1883.921875 841.210938 1883.46875 837.992188 1882.5625 C 834.777344 1881.65625 831.867188 1880.300781 829.265625 1878.488281 C 826.648438 1876.679688 824.566406 1874.402344 823.015625 1871.65625 C 821.445312 1868.90625 820.671875 1865.675781 820.671875 1861.945312 L 832.886719 1861.945312 C 832.886719 1864.15625 833.257812 1866.03125 834.019531 1867.582031 C 834.777344 1869.136719 835.828125 1870.394531 837.183594 1871.398438 C 838.542969 1872.382812 840.125 1873.109375 841.953125 1873.546875 C 843.761719 1873.980469 845.71875 1874.207031 847.800781 1874.207031 C 850.53125 1874.207031 852.828125 1873.820312 854.652344 1873.046875 C 856.496094 1872.269531 857.867188 1871.203125 858.804688 1869.847656 C 859.726562 1868.488281 860.195312 1866.9375 860.195312 1865.160156 Z M 918.382812 1882.964844 L 906.636719 1882.964844 L 906.636719 1810.253906 L 918.382812 1810.253906 Z M 1141.808594 1848.355469 C 1141.808594 1845.703125 1141.070312 1843.585938 1139.601562 1842.019531 C 1138.140625 1840.4375 1135.910156 1839.644531 1132.960938 1839.644531 C 1131.179688 1839.644531 1129.640625 1839.953125 1128.320312 1840.566406 C 1126.988281 1841.195312 1125.960938 1842.019531 1125.230469 1843.054688 C 1124.511719 1844.105469 1124.148438 1845.285156 1124.148438 1846.609375 L 1112.398438 1846.609375 C 1112.398438 1843.863281 1113.28125 1841.277344 1115.011719 1838.867188 C 1116.75 1836.460938 1119.210938 1834.507812 1122.371094 1833.019531 C 1125.539062 1831.53125 1129.289062 1830.789062 1133.621094 1830.789062 C 1137.46875 1830.789062 1140.890625 1831.4375 1143.898438 1832.746094 C 1146.890625 1834.035156 1149.25 1835.992188 1150.96875 1838.609375 C 1152.691406 1841.226562 1153.539062 1844.507812 1153.539062 1848.449219 L 1153.539062 1871.039062 C 1153.539062 1873.433594 1153.71875 1875.550781 1154.058594 1877.375 C 1154.421875 1879.21875 1154.898438 1880.800781 1155.53125 1882.160156 L 1155.53125 1882.964844 L 1143.511719 1882.964844 C 1142.980469 1881.738281 1142.558594 1880.140625 1142.261719 1878.183594 L 1142.25 1878.066406 C 1141.808594 1878.535156 1141.339844 1878.996094 1140.839844 1879.445312 C 1139.371094 1880.753906 1137.628906 1881.820312 1135.621094 1882.660156 C 1133.621094 1883.5 1131.289062 1883.921875 1128.640625 1883.921875 C 1125.300781 1883.921875 1122.328125 1883.257812 1119.710938 1881.933594 C 1117.070312 1880.605469 1115.019531 1878.78125 1113.519531 1876.453125 C 1112.019531 1874.144531 1111.269531 1871.527344 1111.269531 1868.617188 C 1111.269531 1863.1875 1113.308594 1859.035156 1117.378906 1856.128906 C 1121.449219 1853.21875 1127.21875 1851.765625 1134.699219 1851.765625 L 1141.808594 1851.765625 Z M 1141.808594 1868.503906 L 1141.808594 1859.019531 L 1135.558594 1859.019531 C 1131.390625 1859.019531 1128.261719 1859.777344 1126.148438 1861.3125 C 1124.070312 1862.832031 1123.019531 1864.917969 1123.019531 1867.535156 C 1123.019531 1869.554688 1123.710938 1871.234375 1125.089844 1872.574219 C 1126.480469 1873.917969 1128.449219 1874.578125 1130.96875 1874.578125 C 1133.261719 1874.578125 1135.28125 1874.128906 1137 1873.191406 C 1138.730469 1872.253906 1140.070312 1871.105469 1141.050781 1869.730469 C 1141.351562 1869.3125 1141.601562 1868.902344 1141.808594 1868.503906 Z M 1201.070312 1882.964844 L 1189.339844 1882.964844 L 1189.339844 1831.742188 L 1200.359375 1831.742188 L 1200.75 1837.753906 C 1201.96875 1836.25 1203.371094 1834.960938 1204.949219 1833.890625 C 1208.019531 1831.824219 1211.589844 1830.789062 1215.640625 1830.789062 C 1218.96875 1830.789062 1221.828125 1831.421875 1224.269531 1832.664062 C 1226.699219 1833.90625 1228.589844 1835.929688 1229.941406 1838.722656 C 1231.300781 1841.519531 1231.980469 1845.269531 1231.980469 1849.96875 L 1231.980469 1882.964844 L 1220.199219 1882.964844 L 1220.199219 1849.871094 C 1220.199219 1847.515625 1219.859375 1845.621094 1219.179688 1844.234375 C 1218.5 1842.859375 1217.480469 1841.859375 1216.140625 1841.277344 C 1214.800781 1840.695312 1213.171875 1840.402344 1211.25 1840.402344 C 1209.289062 1840.402344 1207.558594 1840.792969 1206.058594 1841.566406 C 1204.558594 1842.34375 1203.28125 1843.425781 1202.230469 1844.816406 C 1201.800781 1845.382812 1201.410156 1845.984375 1201.070312 1846.621094 Z M 1335.460938 1852.476562 L 1304.988281 1852.476562 L 1304.988281 1882.964844 L 1292.769531 1882.964844 L 1292.769531 1814.03125 L 1304.988281 1814.03125 L 1304.988281 1842.632812 L 1335.460938 1842.632812 L 1335.460938 1814.03125 L 1347.628906 1814.03125 L 1347.628906 1882.964844 L 1335.460938 1882.964844 Z M 1407.238281 1883.921875 C 1402.148438 1883.921875 1397.769531 1882.820312 1394.070312 1880.621094 C 1390.378906 1878.425781 1387.539062 1875.46875 1385.550781 1871.71875 C 1383.570312 1867.988281 1382.558594 1863.785156 1382.558594 1859.148438 L 1382.558594 1857.210938 C 1382.558594 1851.878906 1383.578125 1847.238281 1385.601562 1843.265625 C 1387.621094 1839.304688 1390.378906 1836.234375 1393.910156 1834.070312 C 1397.429688 1831.886719 1401.410156 1830.789062 1405.859375 1830.789062 C 1410.78125 1830.789062 1414.871094 1831.855469 1418.128906 1833.988281 C 1421.378906 1836.121094 1423.800781 1839.078125 1425.421875 1842.84375 C 1427.019531 1846.609375 1427.820312 1850.972656 1427.820312 1855.933594 L 1427.820312 1861.007812 L 1388.199219 1861.007812 L 1388.199219 1852.523438 L 1416.21875 1852.523438 L 1416.21875 1851.617188 C 1416.160156 1849.628906 1415.789062 1847.773438 1415.089844 1846.042969 C 1414.398438 1844.296875 1413.300781 1842.894531 1411.789062 1841.824219 C 1410.308594 1840.757812 1408.300781 1840.210938 1405.820312 1840.210938 C 1403.308594 1840.210938 1401.230469 1840.921875 1399.511719 1842.328125 C 1397.820312 1843.734375 1396.53125 1845.703125 1395.640625 1848.242188 C 1394.75 1850.777344 1394.308594 1853.769531 1394.308594 1857.210938 L 1394.308594 1859.148438 C 1394.308594 1862.058594 1394.839844 1864.660156 1395.910156 1866.96875 C 1396.988281 1869.265625 1398.558594 1871.089844 1400.609375 1872.429688 C 1402.648438 1873.773438 1405.109375 1874.449219 1407.949219 1874.449219 C 1410.699219 1874.449219 1413.121094 1873.902344 1415.25 1872.835938 C 1417.390625 1871.769531 1419.230469 1870.21875 1420.78125 1868.199219 L 1426.921875 1874.355469 C 1425.320312 1876.777344 1422.898438 1878.976562 1419.660156 1880.945312 C 1416.429688 1882.933594 1412.28125 1883.921875 1407.238281 1883.921875 Z M 1472.421875 1882.964844 L 1460.679688 1882.964844 L 1460.679688 1831.742188 L 1471.859375 1831.742188 L 1472.191406 1837.683594 C 1473.089844 1836.195312 1474.140625 1834.910156 1475.359375 1833.828125 C 1477.628906 1831.808594 1480.46875 1830.789062 1483.878906 1830.789062 C 1484.539062 1830.789062 1485.289062 1830.855469 1486.109375 1830.984375 C 1486.921875 1831.113281 1487.550781 1831.257812 1487.949219 1831.421875 L 1487.859375 1842.535156 C 1487.128906 1842.40625 1486.371094 1842.3125 1485.558594 1842.246094 C 1484.75 1842.199219 1483.960938 1842.164062 1483.171875 1842.164062 C 1480.578125 1842.164062 1478.429688 1842.617188 1476.710938 1843.554688 C 1474.988281 1844.492188 1473.679688 1845.816406 1472.800781 1847.53125 C 1472.660156 1847.789062 1472.539062 1848.058594 1472.421875 1848.335938 Z M 1541.828125 1883.921875 C 1536.738281 1883.921875 1532.359375 1882.820312 1528.660156 1880.621094 C 1524.96875 1878.425781 1522.128906 1875.46875 1520.140625 1871.71875 C 1518.148438 1867.988281 1517.148438 1863.785156 1517.148438 1859.148438 L 1517.148438 1857.210938 C 1517.148438 1851.878906 1518.171875 1847.238281 1520.191406 1843.265625 C 1522.210938 1839.304688 1524.96875 1836.234375 1528.488281 1834.070312 C 1532.019531 1831.886719 1535.988281 1830.789062 1540.449219 1830.789062 C 1545.359375 1830.789062 1549.449219 1831.855469 1552.71875 1833.988281 C 1555.960938 1836.121094 1558.390625 1839.078125 1560 1842.84375 C 1561.601562 1846.609375 1562.410156 1850.972656 1562.410156 1855.933594 L 1562.410156 1861.007812 L 1522.789062 1861.007812 L 1522.789062 1852.523438 L 1550.808594 1852.523438 L 1550.808594 1851.617188 C 1550.75 1849.628906 1550.371094 1847.773438 1549.679688 1846.042969 C 1548.980469 1844.296875 1547.890625 1842.894531 1546.378906 1841.824219 C 1544.898438 1840.757812 1542.890625 1840.210938 1540.398438 1840.210938 C 1537.898438 1840.210938 1535.808594 1840.921875 1534.101562 1842.328125 C 1532.398438 1843.734375 1531.109375 1845.703125 1530.21875 1848.242188 C 1529.328125 1850.777344 1528.898438 1853.769531 1528.898438 1857.210938 L 1528.898438 1859.148438 C 1528.898438 1862.058594 1529.429688 1864.660156 1530.5 1866.96875 C 1531.578125 1869.265625 1533.148438 1871.089844 1535.199219 1872.429688 C 1537.238281 1873.773438 1539.691406 1874.449219 1542.539062 1874.449219 C 1545.28125 1874.449219 1547.710938 1873.902344 1549.839844 1872.835938 C 1551.96875 1871.769531 1553.820312 1870.21875 1555.371094 1868.199219 L 1561.511719 1874.355469 C 1559.910156 1876.777344 1557.480469 1878.976562 1554.25 1880.945312 C 1551.019531 1882.933594 1546.871094 1883.921875 1541.828125 1883.921875 Z M 952.65625 1856.886719 C 952.65625 1851.894531 953.59375 1847.449219 955.484375 1843.539062 C 957.390625 1839.613281 960.105469 1836.511719 963.660156 1834.230469 C 967.214844 1831.9375 971.480469 1830.789062 976.457031 1830.789062 C 981.515625 1830.789062 985.8125 1831.9375 989.386719 1834.230469 C 992.957031 1836.511719 995.671875 1839.613281 997.546875 1843.539062 C 999.4375 1847.449219 1000.371094 1851.894531 1000.371094 1856.886719 L 1000.371094 1857.871094 C 1000.371094 1862.832031 999.4375 1867.277344 997.546875 1871.203125 C 995.671875 1875.128906 992.957031 1878.230469 989.417969 1880.511719 C 985.863281 1882.773438 981.578125 1883.921875 976.554688 1883.921875 C 971.546875 1883.921875 967.246094 1882.773438 963.675781 1880.511719 C 960.105469 1878.230469 957.390625 1875.128906 955.484375 1871.203125 C 953.59375 1867.277344 952.65625 1862.832031 952.65625 1857.871094 Z M 964.386719 1857.871094 C 964.386719 1860.910156 964.824219 1863.671875 965.664062 1866.175781 C 966.519531 1868.699219 967.847656 1870.703125 969.621094 1872.222656 C 971.398438 1873.738281 973.710938 1874.5 976.554688 1874.5 C 979.367188 1874.5 981.660156 1873.738281 983.4375 1872.222656 C 985.234375 1870.703125 986.542969 1868.699219 987.382812 1866.175781 C 988.207031 1863.671875 988.628906 1860.910156 988.628906 1857.871094 L 988.628906 1856.886719 C 988.628906 1853.878906 988.207031 1851.117188 987.382812 1848.597656 C 986.542969 1846.074219 985.21875 1844.039062 983.421875 1842.519531 C 981.628906 1840.984375 979.304688 1840.210938 976.457031 1840.210938 C 973.648438 1840.210938 971.351562 1840.984375 969.574219 1842.519531 C 967.796875 1844.039062 966.488281 1846.074219 965.648438 1848.597656 C 964.808594 1851.117188 964.386719 1853.878906 964.386719 1856.886719 Z M 1043.679688 1857.921875 C 1043.679688 1860.957031 1044.078125 1863.703125 1044.910156 1866.175781 C 1045.730469 1868.664062 1047.011719 1870.636719 1048.71875 1872.109375 C 1050.429688 1873.5625 1052.660156 1874.304688 1055.378906 1874.304688 C 1058.03125 1874.304688 1060.179688 1873.738281 1061.859375 1872.625 C 1063.421875 1871.5625 1064.671875 1870.160156 1065.589844 1868.402344 L 1065.589844 1868.398438 L 1065.601562 1868.390625 L 1065.601562 1868.382812 L 1065.609375 1868.375 L 1065.609375 1868.359375 L 1065.621094 1868.355469 L 1065.621094 1868.339844 L 1065.628906 1868.332031 L 1065.628906 1868.320312 L 1065.640625 1868.316406 L 1065.640625 1868.300781 L 1065.648438 1868.296875 L 1065.648438 1868.28125 L 1065.660156 1868.277344 L 1065.660156 1868.261719 L 1065.671875 1868.257812 L 1065.671875 1868.246094 L 1065.679688 1868.238281 L 1065.679688 1868.222656 L 1065.691406 1868.21875 L 1065.691406 1868.199219 L 1065.699219 1868.195312 L 1065.699219 1868.183594 L 1065.710938 1868.179688 L 1065.710938 1868.160156 L 1065.71875 1868.15625 L 1065.71875 1868.140625 L 1065.730469 1868.140625 L 1065.730469 1868.125 L 1065.738281 1868.117188 L 1065.738281 1868.101562 L 1065.75 1868.097656 L 1065.75 1868.085938 L 1065.761719 1868.078125 L 1065.761719 1868.0625 L 1065.769531 1868.058594 L 1065.769531 1868.050781 C 1066.691406 1866.128906 1067.339844 1863.964844 1067.679688 1861.570312 L 1067.679688 1853.574219 C 1067.5 1851.667969 1067.128906 1849.921875 1066.558594 1848.304688 L 1066.550781 1848.269531 L 1066.539062 1848.230469 L 1066.519531 1848.195312 L 1066.511719 1848.160156 L 1066.511719 1848.15625 L 1066.5 1848.121094 L 1066.480469 1848.085938 L 1066.480469 1848.082031 L 1066.46875 1848.050781 L 1066.460938 1848.015625 L 1066.460938 1848.007812 L 1066.441406 1847.976562 L 1066.429688 1847.941406 L 1066.429688 1847.933594 L 1066.421875 1847.90625 L 1066.398438 1847.871094 L 1066.398438 1847.863281 L 1066.390625 1847.835938 L 1066.378906 1847.796875 L 1066.371094 1847.789062 L 1066.359375 1847.761719 L 1066.351562 1847.726562 L 1066.339844 1847.714844 L 1066.328125 1847.691406 L 1066.320312 1847.65625 L 1066.320312 1847.644531 L 1066.308594 1847.621094 L 1066.289062 1847.585938 L 1066.289062 1847.570312 L 1066.28125 1847.550781 L 1066.261719 1847.515625 L 1066.261719 1847.5 L 1066.25 1847.480469 L 1066.230469 1847.445312 L 1066.230469 1847.429688 L 1066.21875 1847.410156 L 1066.210938 1847.375 L 1066.199219 1847.355469 L 1066.191406 1847.339844 L 1066.179688 1847.304688 L 1066.171875 1847.285156 L 1066.160156 1847.269531 L 1066.148438 1847.234375 L 1066.140625 1847.214844 L 1066.128906 1847.203125 L 1066.121094 1847.167969 L 1066.109375 1847.144531 L 1066.101562 1847.132812 L 1066.089844 1847.097656 L 1066.078125 1847.074219 L 1066.070312 1847.0625 L 1066.050781 1847.03125 L 1066.039062 1847.007812 L 1066.039062 1846.996094 L 1066.019531 1846.960938 L 1066.011719 1846.9375 L 1066.011719 1846.929688 L 1065.988281 1846.894531 L 1065.980469 1846.867188 L 1065.980469 1846.859375 L 1065.960938 1846.828125 L 1065.949219 1846.800781 L 1065.941406 1846.792969 L 1065.929688 1846.761719 L 1065.910156 1846.730469 L 1065.910156 1846.726562 L 1065.898438 1846.691406 L 1065.878906 1846.664062 L 1065.878906 1846.660156 L 1065.859375 1846.628906 L 1065.851562 1846.597656 L 1065.851562 1846.59375 L 1065.828125 1846.5625 L 1065.808594 1846.527344 L 1065.800781 1846.496094 L 1065.78125 1846.460938 L 1065.761719 1846.429688 L 1065.75 1846.394531 L 1065.710938 1846.332031 L 1065.710938 1846.328125 L 1065.699219 1846.300781 L 1065.679688 1846.265625 L 1065.679688 1846.261719 L 1065.660156 1846.234375 L 1065.640625 1846.203125 L 1065.640625 1846.195312 L 1065.628906 1846.171875 L 1065.609375 1846.136719 L 1065.609375 1846.132812 L 1065.589844 1846.105469 C 1065.199219 1845.398438 1064.75 1844.746094 1064.25 1844.152344 C 1063.25 1842.972656 1062.039062 1842.066406 1060.578125 1841.40625 C 1059.128906 1840.742188 1057.429688 1840.402344 1055.460938 1840.402344 C 1052.738281 1840.402344 1050.53125 1841.148438 1048.789062 1842.601562 C 1047.058594 1844.070312 1045.761719 1846.058594 1044.941406 1848.578125 C 1044.101562 1851.085938 1043.679688 1853.863281 1043.679688 1856.933594 L 1043.679688 1857.921875 "/>
<path fill-rule="nonzero" fill="rgb(0%, 0%, 0%)" fill-opacity="1" d="M 1717 1697.664062 C 1717 1686.828125 1719.050781 1677.152344 1723.179688 1668.609375 C 1727.351562 1660.027344 1733.210938 1653.25 1740.761719 1648.273438 C 1748.359375 1643.257812 1757.359375 1640.75 1767.769531 1640.75 C 1778.328125 1640.75 1787.441406 1643.257812 1795.070312 1648.273438 C 1802.730469 1653.25 1808.621094 1660.027344 1812.71875 1668.609375 C 1816.820312 1677.152344 1818.859375 1686.828125 1818.859375 1697.664062 L 1818.859375 1700.03125 C 1818.859375 1710.800781 1816.820312 1720.476562 1812.71875 1729.054688 C 1808.621094 1737.632812 1802.761719 1744.414062 1795.140625 1749.390625 C 1787.511719 1754.335938 1778.46875 1756.839844 1767.988281 1756.839844 C 1757.5 1756.839844 1748.460938 1754.335938 1740.828125 1749.390625 C 1733.210938 1744.414062 1727.351562 1737.632812 1723.179688 1729.054688 C 1719.050781 1720.476562 1717 1710.800781 1717 1700.03125 Z M 1736.320312 1700.03125 C 1736.320312 1707.410156 1737.519531 1714.226562 1739.851562 1720.511719 C 1742.179688 1726.796875 1745.710938 1731.84375 1750.328125 1735.621094 C 1754.988281 1739.398438 1760.890625 1741.308594 1767.988281 1741.308594 C 1775.011719 1741.308594 1780.871094 1739.398438 1785.5 1735.621094 C 1790.160156 1731.84375 1793.648438 1726.796875 1796.019531 1720.511719 C 1798.351562 1714.226562 1799.519531 1707.410156 1799.519531 1700.03125 L 1799.519531 1697.664062 C 1799.519531 1690.285156 1798.351562 1683.4375 1796.019531 1677.1875 C 1793.648438 1670.902344 1790.160156 1665.855469 1785.460938 1662.039062 C 1780.769531 1658.191406 1774.871094 1656.285156 1767.769531 1656.285156 C 1760.820312 1656.285156 1754.988281 1658.191406 1750.300781 1662.039062 C 1745.601562 1665.855469 1742.109375 1670.902344 1739.808594 1677.1875 C 1737.480469 1683.4375 1736.320312 1690.285156 1736.320312 1697.664062 L 1736.320312 1700.03125 "/>
<path fill-rule="nonzero" fill="rgb(0%, 0%, 0%)" fill-opacity="1" d="M 1545.898438 1697.878906 C 1545.898438 1686.472656 1547.699219 1676.515625 1551.308594 1667.9375 C 1554.871094 1659.324219 1559.988281 1652.648438 1566.589844 1647.917969 C 1573.230469 1643.152344 1581.070312 1640.75 1590.179688 1640.75 C 1597.210938 1640.75 1603.378906 1641.988281 1608.640625 1644.421875 C 1613.941406 1646.894531 1618.421875 1650.425781 1622.101562 1655.050781 C 1625.800781 1659.675781 1628.730469 1665.253906 1630.890625 1671.785156 C 1633.078125 1678.351562 1634.558594 1685.734375 1635.371094 1693.925781 L 1635.371094 1703.949219 C 1634.351562 1714.789062 1632.050781 1724.148438 1628.519531 1732.054688 C 1624.960938 1739.964844 1620.011719 1746.035156 1613.660156 1750.34375 C 1607.339844 1754.6875 1599.429688 1756.839844 1589.96875 1756.839844 C 1581 1756.839844 1573.230469 1754.371094 1566.660156 1749.425781 C 1560.058594 1744.484375 1554.980469 1737.773438 1551.339844 1729.195312 C 1547.738281 1720.652344 1545.898438 1710.941406 1545.898438 1700.03125 Z M 1565.25 1700.03125 C 1565.25 1707.480469 1566.28125 1714.296875 1568.320312 1720.402344 C 1570.339844 1726.546875 1573.550781 1731.453125 1577.890625 1735.164062 C 1582.230469 1738.835938 1587.851562 1740.707031 1594.730469 1740.707031 C 1601.089844 1740.707031 1606.28125 1739.328125 1610.339844 1736.644531 C 1614.429688 1733.960938 1617.71875 1730.394531 1620.191406 1725.984375 C 1622.660156 1721.570312 1624.601562 1716.804688 1625.980469 1711.613281 L 1625.980469 1686.472656 C 1625.128906 1682.695312 1623.96875 1679.023438 1622.449219 1675.457031 C 1620.929688 1671.925781 1618.949219 1668.75 1616.449219 1665.960938 C 1613.980469 1663.171875 1610.96875 1660.945312 1607.410156 1659.285156 C 1603.839844 1657.628906 1599.710938 1656.816406 1594.949219 1656.816406 C 1587.988281 1656.816406 1582.308594 1658.652344 1577.929688 1662.394531 C 1573.550781 1666.101562 1570.339844 1671.078125 1568.320312 1677.328125 C 1566.28125 1683.578125 1565.25 1690.429688 1565.25 1697.878906 L 1565.25 1700.03125 "/>
<path fill-rule="nonzero" fill="rgb(0%, 0%, 0%)" fill-opacity="1" d="M 1372.050781 1697.664062 C 1372.050781 1686.828125 1374.101562 1677.152344 1378.230469 1668.609375 C 1382.398438 1660.027344 1388.261719 1653.25 1395.808594 1648.273438 C 1403.398438 1643.257812 1412.410156 1640.75 1422.820312 1640.75 C 1433.378906 1640.75 1442.488281 1643.257812 1450.109375 1648.273438 C 1457.78125 1653.25 1463.671875 1660.027344 1467.769531 1668.609375 C 1471.859375 1677.152344 1473.910156 1686.828125 1473.910156 1697.664062 L 1473.910156 1700.03125 C 1473.910156 1710.800781 1471.859375 1720.476562 1467.769531 1729.054688 C 1463.671875 1737.632812 1457.808594 1744.414062 1450.191406 1749.390625 C 1442.558594 1754.335938 1433.519531 1756.839844 1423.03125 1756.839844 C 1412.550781 1756.839844 1403.511719 1754.335938 1395.878906 1749.390625 C 1388.261719 1744.414062 1382.398438 1737.632812 1378.230469 1729.054688 C 1374.101562 1720.476562 1372.050781 1710.800781 1372.050781 1700.03125 Z M 1391.359375 1700.03125 C 1391.359375 1707.410156 1392.558594 1714.226562 1394.890625 1720.511719 C 1397.21875 1726.796875 1400.761719 1731.84375 1405.378906 1735.621094 C 1410.039062 1739.398438 1415.941406 1741.308594 1423.03125 1741.308594 C 1430.058594 1741.308594 1435.921875 1739.398438 1440.550781 1735.621094 C 1445.210938 1731.84375 1448.699219 1726.796875 1451.070312 1720.511719 C 1453.398438 1714.226562 1454.558594 1707.410156 1454.558594 1700.03125 L 1454.558594 1697.664062 C 1454.558594 1690.285156 1453.398438 1683.4375 1451.070312 1677.1875 C 1448.699219 1670.902344 1445.210938 1665.855469 1440.511719 1662.039062 C 1435.820312 1658.191406 1429.921875 1656.285156 1422.820312 1656.285156 C 1415.871094 1656.285156 1410.039062 1658.191406 1405.339844 1662.039062 C 1400.648438 1665.855469 1397.148438 1670.902344 1394.859375 1677.1875 C 1392.53125 1683.4375 1391.359375 1690.285156 1391.359375 1697.664062 L 1391.359375 1700.03125 "/>
<path fill-rule="nonzero" fill="rgb(0%, 0%, 0%)" fill-opacity="1" d="M 1640.558594 1642.835938 L 1640.558594 1752.394531 C 1640.558594 1762.242188 1638.550781 1770.644531 1634.519531 1777.601562 C 1630.460938 1784.59375 1624.890625 1789.890625 1617.75 1793.492188 C 1610.621094 1797.128906 1602.390625 1798.929688 1593.070312 1798.929688 C 1589.230469 1798.929688 1584.671875 1798.328125 1579.480469 1797.128906 C 1574.261719 1795.925781 1569.171875 1793.878906 1564.160156 1791.019531 C 1559.179688 1788.160156 1554.980469 1784.3125 1551.589844 1779.472656 L 1561.648438 1768.210938 C 1566.308594 1773.859375 1571.25 1777.8125 1576.371094 1780.039062 C 1581.53125 1782.296875 1586.609375 1783.394531 1591.628906 1783.429688 C 1600.660156 1783.394531 1607.871094 1780.851562 1613.199219 1775.695312 C 1618.53125 1770.574219 1621.210938 1763.089844 1621.210938 1753.3125 L 1621.210938 1667.441406 L 1622.980469 1642.835938 L 1640.558594 1642.835938 "/>
<path fill-rule="nonzero" fill="rgb(0%, 0%, 0%)" fill-opacity="1" d="M 1293.949219 1754.757812 L 1274.601562 1754.757812 L 1274.601562 1595.875 L 1293.949219 1595.875 L 1293.949219 1754.757812 "/>
<path fill-rule="nonzero" fill="rgb(0%, 0%, 0%)" fill-opacity="1" d="M 1101.769531 1756.839844 C 1090.648438 1756.839844 1081.078125 1754.441406 1073 1749.640625 C 1064.949219 1744.835938 1058.730469 1738.375 1054.390625 1730.183594 C 1050.050781 1722.027344 1047.859375 1712.847656 1047.859375 1702.714844 L 1047.859375 1698.480469 C 1047.859375 1686.828125 1050.078125 1676.695312 1054.5 1668.007812 C 1058.910156 1659.359375 1064.949219 1652.648438 1072.640625 1647.917969 C 1080.339844 1643.152344 1089.03125 1640.75 1098.769531 1640.75 C 1109.5 1640.75 1118.441406 1643.082031 1125.570312 1647.742188 C 1132.671875 1652.402344 1137.960938 1658.863281 1141.488281 1667.089844 C 1144.988281 1675.316406 1146.75 1684.851562 1146.75 1695.6875 L 1146.75 1706.777344 L 1060.179688 1706.777344 L 1060.179688 1688.238281 L 1121.398438 1688.238281 L 1121.398438 1686.261719 C 1121.261719 1681.917969 1120.449219 1677.859375 1118.929688 1674.082031 C 1117.410156 1670.269531 1115.011719 1667.195312 1111.730469 1664.867188 C 1108.480469 1662.535156 1104.101562 1661.335938 1098.671875 1661.335938 C 1093.191406 1661.335938 1088.640625 1662.890625 1084.898438 1665.960938 C 1081.191406 1669.03125 1078.359375 1673.339844 1076.421875 1678.882812 C 1074.480469 1684.425781 1073.53125 1690.957031 1073.53125 1698.480469 L 1073.53125 1702.714844 C 1073.53125 1709.070312 1074.691406 1714.753906 1077.019531 1719.804688 C 1079.390625 1724.816406 1082.808594 1728.808594 1087.300781 1731.738281 C 1091.75 1734.667969 1097.109375 1736.152344 1103.328125 1736.152344 C 1109.328125 1736.152344 1114.621094 1734.949219 1119.28125 1732.621094 C 1123.949219 1730.289062 1127.96875 1726.902344 1131.359375 1722.488281 L 1144.78125 1735.941406 C 1141.28125 1741.234375 1135.988281 1746.035156 1128.921875 1750.34375 C 1121.859375 1754.6875 1112.789062 1756.839844 1101.769531 1756.839844 "/>
<path fill-rule="nonzero" fill="rgb(0%, 0%, 0%)" fill-opacity="1" d="M 981.761719 1661.757812 L 916.195312 1661.757812 L 916.195312 1642.835938 L 981.761719 1642.835938 L 981.761719 1661.757812 "/>
<path fill-rule="nonzero" fill="rgb(0%, 0%, 0%)" fill-opacity="1" d="M 933.25 1754.757812 L 933.25 1632.171875 C 933.25 1619.777344 936.78125 1610.246094 943.808594 1603.644531 C 950.867188 1597.003906 960.472656 1593.6875 972.6875 1593.6875 C 975.160156 1593.6875 977.597656 1593.863281 980.03125 1594.214844 C 982.433594 1594.570312 984.765625 1595.027344 987.058594 1595.558594 L 986.421875 1615.648438 C 985.117188 1615.363281 983.632812 1615.152344 981.976562 1615.011719 C 980.351562 1614.871094 978.621094 1614.800781 976.820312 1614.800781 C 971.171875 1614.800781 966.757812 1616.316406 963.613281 1619.320312 C 960.472656 1622.285156 958.917969 1626.59375 958.917969 1632.171875 L 958.917969 1754.757812 L 933.25 1754.757812 "/>
<path fill-rule="nonzero" fill="rgb(0%, 0%, 0%)" fill-opacity="1" d="M 824.363281 1702.433594 L 806.78125 1702.433594 C 797.671875 1702.433594 790.820312 1704.09375 786.230469 1707.445312 C 781.675781 1710.765625 779.382812 1715.320312 779.382812 1721.039062 C 779.382812 1725.453125 780.898438 1729.125 783.898438 1732.054688 C 786.9375 1734.984375 791.242188 1736.433594 796.753906 1736.433594 C 801.765625 1736.433594 806.179688 1735.445312 809.921875 1733.398438 C 813.699219 1731.351562 816.628906 1728.84375 818.785156 1725.84375 C 820.902344 1722.839844 822.03125 1720.050781 822.101562 1717.402344 L 830.257812 1728.914062 C 829.445312 1731.738281 828.035156 1734.738281 826.058594 1737.953125 C 824.117188 1741.164062 821.503906 1744.203125 818.324219 1747.0625 C 815.113281 1749.921875 811.300781 1752.253906 806.921875 1754.085938 C 802.542969 1755.925781 797.460938 1756.839844 791.667969 1756.839844 C 784.359375 1756.839844 777.863281 1755.394531 772.144531 1752.496094 C 766.386719 1749.605469 761.902344 1745.613281 758.621094 1740.53125 C 755.335938 1735.480469 753.714844 1729.761719 753.714844 1723.40625 C 753.714844 1711.542969 758.160156 1702.46875 767.058594 1696.113281 C 775.957031 1689.757812 788.5625 1686.578125 804.910156 1686.578125 L 824.152344 1686.578125 L 824.363281 1702.433594 "/>
<path fill-rule="nonzero" fill="rgb(0%, 0%, 0%)" fill-opacity="1" d="M 820.441406 1679.128906 C 820.441406 1673.339844 818.820312 1668.714844 815.605469 1665.289062 C 812.429688 1661.828125 807.558594 1660.097656 801.09375 1660.097656 C 797.210938 1660.097656 793.855469 1660.769531 790.960938 1662.113281 C 788.066406 1663.488281 785.808594 1665.289062 784.21875 1667.550781 C 782.628906 1669.84375 781.851562 1672.421875 781.851562 1675.316406 L 756.183594 1675.316406 C 756.183594 1669.316406 758.089844 1663.664062 761.867188 1658.40625 C 765.683594 1653.144531 771.046875 1648.871094 777.96875 1645.621094 C 784.890625 1642.375 793.078125 1640.75 802.542969 1640.75 C 810.945312 1640.75 818.429688 1642.164062 824.996094 1645.023438 C 831.53125 1647.847656 836.683594 1652.121094 840.464844 1657.839844 C 844.203125 1663.558594 846.078125 1670.726562 846.078125 1679.34375 L 846.078125 1728.703125 C 846.078125 1733.925781 846.464844 1738.550781 847.207031 1742.542969 C 847.984375 1746.566406 849.042969 1750.027344 850.421875 1752.992188 L 850.421875 1754.757812 L 824.152344 1754.757812 C 822.984375 1752.074219 822.066406 1748.578125 821.433594 1744.308594 C 820.761719 1740.035156 820.441406 1735.867188 820.441406 1731.808594 L 820.441406 1679.128906 "/>
<path fill-rule="nonzero" fill="rgb(0%, 0%, 0%)" fill-opacity="1" d="M 684.296875 1705.503906 C 683.484375 1715.390625 680.695312 1724.183594 675.964844 1731.949219 C 671.269531 1739.71875 664.667969 1745.789062 656.15625 1750.203125 C 647.683594 1754.617188 637.304688 1756.839844 625.050781 1756.839844 C 612.625 1756.839844 601.855469 1753.910156 592.710938 1748.085938 C 583.566406 1742.257812 576.539062 1733.996094 571.597656 1723.300781 C 566.6875 1712.636719 564.21875 1699.996094 564.21875 1685.449219 L 564.21875 1673.550781 C 564.21875 1658.933594 566.726562 1646.296875 571.773438 1635.632812 C 576.785156 1625.003906 583.953125 1616.742188 593.242188 1610.882812 C 602.492188 1605.019531 613.472656 1602.089844 626.074219 1602.089844 C 638.152344 1602.089844 648.320312 1604.3125 656.652344 1608.761719 C 664.949219 1613.210938 671.410156 1619.355469 676 1627.15625 C 680.554688 1634.996094 683.34375 1643.964844 684.296875 1654.097656 L 657.710938 1654.097656 C 656.6875 1644.527344 653.863281 1637.078125 649.203125 1631.78125 C 644.542969 1626.453125 636.84375 1623.804688 626.074219 1623.804688 C 618.273438 1623.804688 611.8125 1625.710938 606.691406 1629.558594 C 601.539062 1633.371094 597.652344 1638.949219 595.039062 1646.296875 C 592.429688 1653.636719 591.121094 1662.675781 591.121094 1673.339844 L 591.121094 1685.449219 C 591.121094 1695.652344 592.289062 1704.480469 594.617188 1711.894531 C 596.984375 1719.308594 600.621094 1725.027344 605.597656 1729.054688 C 610.539062 1733.078125 617.039062 1735.09375 625.050781 1735.09375 C 632.359375 1735.09375 638.257812 1733.960938 642.777344 1731.703125 C 647.296875 1729.40625 650.722656 1726.089844 653.085938 1721.710938 C 655.417969 1717.332031 656.933594 1711.929688 657.640625 1705.503906 L 684.296875 1705.503906 "/>
<path fill-rule="evenodd" fill="rgb(0%, 0%, 0%)" fill-opacity="1" d="M 1083.78125 769.550781 C 1192.96875 741.488281 1357.058594 750.21875 1411.089844 845.628906 C 1448.5 962.101562 1329.210938 1048.570312 1193.691406 1086.171875 C 1117.179688 1107.410156 1031.238281 1108.800781 967 1142.898438 C 1028.929688 1123.609375 1094.78125 1128 1197.328125 1112.808594 C 1241 1106.351562 1295.898438 1089.511719 1340.921875 1069.921875 C 1383.871094 1051.238281 1406.25 1063.78125 1406.699219 1106.128906 C 1408.269531 1253.550781 1167.460938 1348.078125 983.625 1204.269531 C 1020.359375 1242.539062 1058.839844 1269.21875 1097.480469 1286.058594 C 1123.039062 1319.898438 1174.089844 1337.96875 1256.378906 1323.589844 C 1337.820312 1309.351562 1422.898438 1248.710938 1427.710938 1192.371094 C 1436.261719 1181.191406 1444.109375 1169.398438 1451.171875 1157.078125 C 1531.410156 1096.980469 1587.460938 1078.011719 1632.25 1002.511719 C 1709.550781 861.539062 1635.910156 806.789062 1491.191406 863.578125 C 1493.589844 737.851562 1219.308594 712.140625 1083.78125 769.550781 Z M 1480.730469 1087.679688 C 1495.441406 1037.171875 1497.78125 981.800781 1483.859375 925.851562 C 1583.679688 876.050781 1642.710938 900.441406 1595.191406 989.578125 C 1566.730469 1041.148438 1522.578125 1062.53125 1480.730469 1087.679688 "/>
<path fill="none" stroke-width="5.6693" stroke-linecap="butt" stroke-linejoin="miter" stroke="rgb(0%, 0%, 0%)" stroke-opacity="1" stroke-miterlimit="22.9256" d="M 10837.8125 16304.492188 C 11929.6875 16585.117188 13570.585938 16497.8125 14110.898438 15543.710938 C 14485 14378.984375 13292.109375 13514.296875 11936.914062 13138.28125 C 11171.796875 12925.898438 10312.382812 12911.992188 9670 12571.015625 C 10289.296875 12763.90625 10947.8125 12720 11973.28125 12871.914062 C 12410 12936.484375 12958.984375 13104.882812 13409.21875 13300.78125 C 13838.710938 13487.617188 14062.5 13362.1875 14066.992188 12938.710938 C 14082.695312 11464.492188 11674.609375 10519.21875 9836.25 11957.304688 C 10203.59375 11574.609375 10588.398438 11307.8125 10974.804688 11139.414062 C 11230.390625 10801.015625 11740.898438 10620.3125 12563.789062 10764.101562 C 13378.203125 10906.484375 14228.984375 11512.890625 14277.109375 12076.289062 C 14362.617188 12188.085938 14441.09375 12306.015625 14511.71875 12429.21875 C 15314.101562 13030.195312 15874.609375 13219.882812 16322.5 13974.882812 C 17095.507812 15384.609375 16359.101562 15932.109375 14911.914062 15364.21875 C 14935.898438 16621.484375 12193.085938 16878.59375 10837.8125 16304.492188 Z M 14807.304688 13123.203125 C 14954.414062 13628.28125 14977.8125 14181.992188 14838.59375 14741.484375 C 15836.796875 15239.492188 16427.109375 14995.585938 15951.914062 14104.21875 C 15667.304688 13588.515625 15225.78125 13374.6875 14807.304688 13123.203125 Z M 14807.304688 13123.203125 " transform="matrix(0.1, 0, 0, -0.1, 0, 2400)"/>
<path fill-rule="evenodd" fill="rgb(0%, 0%, 0%)" fill-opacity="1" d="M 1055.210938 832.160156 C 1297.410156 745.808594 1532.601562 866.019531 1272.25 1021.929688 C 1168.679688 1082.519531 1059.109375 1056.230469 947.121094 1125.839844 C 853.824219 1201.429688 953.539062 1318.621094 960.730469 1363.179688 C 982.621094 1498.816406 822.003906 1465.488281 857.460938 1353.609375 C 909.789062 1243.660156 908.847656 1207.210938 876.4375 1121.179688 C 840.867188 1048.578125 928.15625 917.71875 981.953125 874.21875 C 1015.300781 906.75 1066.011719 927.390625 1113.71875 933.960938 C 1074.539062 912.621094 1048.320312 880.320312 1024.511719 845.980469 C 1034.308594 840.769531 1044.519531 836.109375 1055.210938 832.160156 "/>
<path fill-rule="evenodd" fill="rgb(59.959412%, 59.959412%, 59.959412%)" fill-opacity="1" d="M 874.472656 1411.371094 C 881.671875 1436.59375 912.203125 1432.824219 896.890625 1406.617188 C 887.089844 1389.851562 879.5625 1395.351562 869.5625 1350.03125 C 866.585938 1385.898438 872.398438 1400.34375 874.472656 1411.371094 "/>
<path fill-rule="evenodd" fill="rgb(80.076599%, 80.076599%, 80.076599%)" fill-opacity="1" d="M 1197.328125 1112.808594 C 1094.78125 1128 1028.929688 1123.609375 967 1142.898438 C 1041.148438 1130.859375 1114.03125 1142.449219 1187.320312 1132.179688 C 1285.269531 1120.109375 1320.511719 1126.78125 1314.679688 1159.308594 C 1308.628906 1256.300781 1211.820312 1287.28125 1074.628906 1255.609375 C 1238.050781 1316.609375 1408.019531 1230.058594 1406.699219 1106.128906 C 1406.25 1063.78125 1383.871094 1051.238281 1340.921875 1069.921875 C 1295.898438 1089.511719 1241 1106.351562 1197.328125 1112.808594 "/>
<path fill-rule="evenodd" fill="rgb(0%, 0%, 0%)" fill-opacity="1" d="M 1098.628906 434.558594 C 1219.078125 608.191406 781.257812 757.089844 1113.71875 933.960938 C 894.289062 768.46875 1329.878906 646.160156 1098.628906 434.558594 "/>
<path fill-rule="evenodd" fill="rgb(59.959412%, 59.959412%, 59.959412%)" fill-opacity="1" d="M 1086.148438 854.5 C 1267.128906 802.300781 1428.398438 893.78125 1232.699219 1010.980469 C 1222.460938 1016.960938 1212.160156 1021.871094 1201.78125 1025.980469 C 1221.609375 1020.460938 1241.210938 1013.011719 1260.539062 1001.691406 C 1464.75 879.398438 1280.28125 785.121094 1090.308594 852.851562 C 1088.910156 853.359375 1087.519531 853.890625 1086.148438 854.441406 C 1086.148438 854.460938 1086.148438 854.480469 1086.148438 854.5 "/>
</svg>
